<svg xmlns="http://www.w3.org/2000/svg" version="1.1" xmlns:xlink="http://www.w3.org/1999/xlink" width="200" height="200"><svg xmlns="http://www.w3.org/2000/svg" version="1.1" xmlns:xlink="http://www.w3.org/1999/xlink" width="200" height="200"><svg xmlns="http://www.w3.org/2000/svg" version="1.1" xmlns:xlink="http://www.w3.org/1999/xlink" viewBox="0 0 200 200"><rect width="200" height="200" fill="url('#gradient')"></rect><defs><linearGradient id="gradient" gradientTransform="rotate(67 0.5 0.5)"><stop offset="0%" stop-color="#0004ff"></stop><stop offset="100%" stop-color="#ff0060"></stop></linearGradient></defs><g><g fill="#ff00b7" transform="matrix(5.361256544502618,0,0,5.361256544502618,4.246625768576607,138.11790961370417)" stroke="#ffffff" stroke-width="0.85"><path d="M1.07-14.22L5.58-14.22L8.75-4.33L11.91-14.22L16.43-14.22L16.43 0L12.99 0L12.99-3.32L13.32-10.12L9.88 0L7.62 0L4.17-10.13L4.50-3.32L4.50 0L1.07 0L1.07-14.22ZM27.64-14.22L29.62-5.30L31.25-14.22L34.65-14.22L31.63 0L28.08 0L26.17-8.11L24.31 0L20.76 0L17.73-14.22L21.14-14.22L22.77-5.30L24.73-14.22L27.64-14.22Z"></path></g></g></svg></svg><style>@media (prefers-color-scheme: light) { :root { filter: none; } }
@media (prefers-color-scheme: dark) { :root { filter: none; } }
</style></svg>